<?xml version="1.0" standalone="no"?>
<!DOCTYPE svg PUBLIC "-//W3C//DTD SVG 20010904//EN"
 "http://www.w3.org/TR/2001/REC-SVG-20010904/DTD/svg10.dtd">
<svg version="1.0" xmlns="http://www.w3.org/2000/svg"
 width="592.000000pt" height="335.000000pt" viewBox="0 0 592.000000 335.000000"
 preserveAspectRatio="xMidYMid meet">

<g transform="translate(0.000000,335.000000) scale(0.100000,-0.100000)"
fill="#000000" stroke="none">
<path d="M1550 2835 c-24 -25 -24 -26 -12 -133 12 -105 17 -292 8 -292 -11 0
-83 45 -107 67 l-26 24 -26 -21 c-33 -26 -34 -55 -4 -109 l24 -41 26 20 26 20
47 -22 47 -23 -6 -111 -6 -112 -52 -87 c-57 -97 -145 -189 -198 -206 -18 -6
-56 -9 -83 -7 -40 4 -56 12 -89 44 -78 76 -100 137 -109 307 -2 26 -6 47 -10
47 -4 0 -17 -11 -29 -24 -22 -23 -23 -31 -17 -103 9 -102 26 -171 50 -208 33
-49 69 -86 99 -101 34 -18 102 -28 125 -18 22 9 28 11 47 13 19 1 225 199 225
216 0 7 6 17 13 23 7 6 28 41 46 77 32 63 41 99 44 176 l2 36 55 -25 c47 -21
95 -48 197 -109 14 -8 28 -34 39 -70 9 -32 25 -80 35 -108 23 -64 49 -215 49
-282 0 -39 4 -53 14 -53 20 0 66 57 67 83 1 12 3 35 5 50 2 21 -1 27 -11 23
-14 -5 -23 13 -30 62 -3 15 -7 38 -9 52 -3 14 -8 39 -12 55 -3 17 -15 56 -26
88 -20 56 -20 58 -2 78 18 20 18 21 -1 35 -48 35 -65 55 -65 77 0 13 -25 72
-56 132 -31 61 -65 134 -75 164 -11 30 -38 88 -60 130 -23 42 -48 97 -55 123
-17 56 -29 66 -53 44 -18 -17 -36 -22 -27 -8 2 4 1 13 -3 20 -5 9 -14 5 -31
-13z m60 -111 c0 -9 18 -46 40 -84 22 -37 52 -101 66 -141 15 -41 47 -112 71
-158 25 -46 41 -82 37 -79 -5 2 -39 18 -76 35 -37 18 -84 43 -105 57 l-37 26
-2 162 c0 90 -4 174 -9 187 -5 16 -4 21 4 17 6 -4 11 -14 11 -22z"/>
<path d="M3181 2707 c-17 -19 -21 -35 -21 -94 0 -38 -3 -111 -6 -161 -7 -89
-7 -91 -37 -103 -46 -19 -95 -66 -102 -98 -3 -16 -15 -37 -26 -47 -19 -18 -26
-54 -10 -54 25 0 71 55 83 97 10 36 21 51 47 65 l34 19 -7 -38 c-24 -138 -46
-399 -46 -539 l0 -160 28 -27 c28 -27 28 -27 184 -26 l157 0 28 32 c28 32 72
171 58 185 -12 13 -54 -43 -60 -82 -13 -78 -10 -76 -159 -76 -128 0 -133 1
-156 25 -22 23 -23 30 -22 197 0 95 2 193 6 218 3 25 8 70 11 100 3 30 8 71
11 90 2 19 7 53 10 75 5 44 12 54 40 60 10 2 33 8 51 14 17 5 33 7 36 5 7 -7
100 59 105 74 3 11 -1 11 -24 -1 -16 -8 -51 -19 -78 -26 -27 -7 -61 -18 -77
-26 -33 -18 -38 -10 -32 60 7 90 8 257 2 261 -3 2 -16 -7 -28 -19z"/>
<path d="M3965 2338 c-49 -25 -75 -47 -75 -65 0 -11 4 -11 21 -2 20 10 21 9
14 -12 -4 -13 -9 -51 -12 -84 -8 -141 -24 -285 -38 -350 -8 -38 -15 -92 -15
-120 0 -45 3 -52 33 -72 43 -29 83 -36 210 -38 l108 -2 49 54 c67 76 114 173
125 258 6 53 4 57 -95 241 -25 48 -101 132 -140 156 -106 66 -120 68 -185 36z
m99 -72 c57 -32 166 -142 166 -168 0 -6 13 -29 28 -52 15 -22 34 -57 41 -76 8
-19 18 -39 23 -44 25 -30 -17 -190 -66 -250 -19 -23 -28 -26 -106 -27 -151 -2
-228 26 -231 86 -3 51 5 128 16 165 14 48 22 121 29 276 4 91 12 124 28 124 6
0 39 -15 72 -34z"/>
<path d="M2731 2294 c-23 -29 -26 -41 -12 -46 16 -5 -4 -185 -22 -206 -8 -9
-23 -43 -32 -74 -9 -31 -29 -73 -45 -94 -17 -20 -30 -42 -30 -49 0 -7 -7 -26
-15 -41 -8 -16 -15 -36 -15 -45 0 -23 -30 -79 -42 -79 -19 0 -68 62 -68 87 0
13 -6 36 -14 51 -8 15 -17 48 -20 75 -4 26 -11 59 -17 74 -5 14 -7 28 -5 30 3
3 0 17 -6 32 -5 14 -11 35 -13 46 -2 11 -10 47 -17 80 -7 33 -13 84 -13 113 1
28 -2 52 -5 52 -4 0 -16 -10 -28 -23 -19 -20 -22 -35 -22 -98 0 -43 9 -105 21
-149 25 -90 36 -136 50 -214 5 -32 14 -67 19 -77 6 -10 10 -29 10 -43 0 -34
60 -96 93 -96 33 0 98 73 119 132 8 24 20 59 27 78 7 19 14 44 16 54 3 11 14
29 25 41 11 11 31 50 45 86 14 35 34 80 44 99 27 50 34 223 10 228 -9 2 -26
-9 -38 -24z"/>
<path d="M4620 1520 c-67 -71 -80 -90 -61 -90 14 0 144 150 137 158 -4 3 -38
-27 -76 -68z"/>
<path d="M2123 1387 c-18 -20 -29 -56 -38 -127 -1 -14 -8 -45 -14 -70 -12 -53
-15 -530 -3 -530 5 0 17 9 28 21 17 19 19 40 20 268 2 237 5 295 17 307 3 3
30 6 60 6 40 1 69 -6 112 -28 70 -35 145 -104 145 -132 0 -12 4 -23 9 -26 4
-3 14 -27 21 -53 7 -27 16 -52 19 -58 3 -5 4 -70 2 -143 -3 -151 0 -156 57
-83 35 47 38 70 22 182 -8 54 -6 78 9 132 30 107 37 115 126 119 82 3 95 1 95
-14 0 -6 11 -23 25 -40 14 -16 25 -37 25 -46 0 -21 -19 -81 -38 -116 -8 -15
-17 -56 -19 -90 -5 -58 -4 -64 21 -83 14 -12 26 -27 26 -35 0 -19 20 -38 41
-38 9 0 42 27 72 60 53 57 75 95 63 107 -8 8 -56 -37 -56 -52 0 -16 -45 -57
-53 -48 -4 3 -7 14 -7 24 0 9 -12 24 -26 34 -25 16 -26 20 -21 79 3 35 13 76
21 92 39 77 41 147 6 169 -6 4 -15 18 -20 31 -9 23 -14 24 -94 24 -83 0 -85
-1 -133 -39 -60 -47 -80 -70 -85 -96 -6 -34 -22 -19 -41 37 -19 57 -62 104
-130 141 -22 12 -49 28 -61 34 -12 7 -55 13 -99 13 l-78 0 4 40 c5 49 -4 57
-30 27z"/>
<path d="M5028 1333 c-31 -36 -144 -189 -166 -226 -19 -32 -22 -53 -22 -136 0
-103 12 -148 55 -202 23 -29 95 -85 95 -74 0 4 11 0 25 -9 13 -9 34 -16 45
-16 20 0 131 77 146 101 14 23 -6 18 -49 -11 -53 -35 -53 -35 -109 -11 -50 21
-102 71 -128 122 -28 54 -31 223 -4 264 69 107 77 114 122 115 23 0 44 0 47 0
2 1 20 7 39 15 20 8 46 15 59 15 25 0 75 45 63 57 -3 4 -26 1 -49 -6 -23 -7
-68 -16 -100 -18 -57 -5 -58 -4 -47 16 13 25 -1 28 -22 4z"/>
<path d="M4573 1288 c-19 -21 -21 -39 -26 -218 -4 -119 -12 -220 -21 -260 -8
-36 -12 -68 -7 -73 4 -4 19 5 34 21 20 21 29 45 38 102 12 79 20 450 9 450 -4
0 -16 -10 -27 -22z"/>
<path d="M3942 1277 c-12 -13 -22 -27 -22 -31 0 -4 -11 -22 -25 -40 -14 -18
-25 -36 -25 -41 0 -4 -16 -40 -36 -79 -34 -66 -36 -75 -31 -134 7 -73 15 -89
48 -105 13 -7 35 -34 49 -61 14 -27 31 -51 39 -54 19 -6 77 53 129 133 l46 70
12 -75 c17 -105 18 -429 2 -435 -7 -2 -40 -6 -73 -9 -33 -2 -73 -7 -90 -10
-16 -4 -72 -6 -124 -6 -102 1 -145 18 -156 63 -10 38 -13 144 -5 157 14 22 33
-29 27 -71 -6 -47 3 -49 37 -8 18 21 26 42 26 67 -1 40 -28 103 -47 109 -6 2
-27 -10 -46 -26 -42 -38 -57 -89 -57 -202 0 -81 0 -82 36 -115 l37 -33 106 4
c58 3 120 8 136 11 17 3 62 6 102 5 71 -1 72 -1 102 36 57 69 59 81 54 278 -2
99 -6 248 -8 330 -4 169 -13 255 -26 255 -4 0 -25 -11 -45 -25 -23 -16 -51
-25 -75 -25 -40 0 -42 2 -51 64 -4 28 -21 29 -46 3z m53 -124 c27 3 62 9 76
12 23 6 27 3 33 -26 3 -18 9 -62 12 -98 6 -66 6 -66 -33 -111 -22 -25 -43 -52
-47 -60 -7 -15 -23 -42 -39 -68 -7 -10 -12 -10 -23 -1 -7 6 -12 15 -9 19 7 12
-38 74 -63 85 -27 12 -31 23 -39 97 -5 53 -3 66 28 129 33 69 34 70 44 44 9
-26 12 -27 60 -22z"/>
<path d="M3365 1220 c-22 -10 -67 -26 -99 -34 -83 -22 -96 -36 -96 -108 0 -55
3 -61 43 -105 l42 -46 3 -118 c4 -140 10 -144 74 -67 24 28 65 72 92 97 27 25
55 60 62 76 12 28 13 25 16 -55 1 -47 1 -106 -1 -132 -1 -25 2 -49 7 -52 5 -3
22 8 37 24 27 28 28 31 21 102 -4 40 -8 146 -9 235 -1 89 -5 164 -9 168 -4 4
-4 13 -1 21 9 23 -132 19 -182 -6z m128 -60 c-7 -14 -13 -39 -13 -56 0 -17 -7
-48 -15 -67 -8 -20 -15 -54 -15 -76 0 -41 -17 -91 -31 -91 -14 0 -81 -63 -89
-84 -7 -18 -9 -15 -11 14 -1 19 -1 61 1 93 1 33 -3 64 -10 72 -7 8 -9 15 -5
15 4 0 -11 20 -34 45 -60 65 -56 112 11 120 10 1 27 10 38 20 11 10 20 15 20
11 0 -4 6 -3 14 1 8 4 45 8 83 8 l69 0 -13 -25z"/>
</g>
</svg>
